<?xml version="1.0" encoding="UTF-8"?>
<svg xmlns="http://www.w3.org/2000/svg" viewBox="0 0 1560 1020" width="1560" height="1020" role="img" aria-label="RDM-PAN architecture">
  <defs>
    <marker id="arr" viewBox="0 0 10 10" refX="9" refY="5" markerWidth="7" markerHeight="7" orient="auto-start-reverse">
      <path d="M1 1.4 L9 5 L1 8.6 Z" fill="#334155"/>
    </marker>
    <marker id="arrPan" viewBox="0 0 10 10" refX="9" refY="5" markerWidth="7" markerHeight="7" orient="auto-start-reverse">
      <path d="M1 1.4 L9 5 L1 8.6 Z" fill="#C45C26"/>
    </marker>
    <marker id="arrMs" viewBox="0 0 10 10" refX="9" refY="5" markerWidth="7" markerHeight="7" orient="auto-start-reverse">
      <path d="M1 1.4 L9 5 L1 8.6 Z" fill="#1B7A71"/>
    </marker>
    <marker id="arrFuse" viewBox="0 0 10 10" refX="9" refY="5" markerWidth="7" markerHeight="7" orient="auto-start-reverse">
      <path d="M1 1.4 L9 5 L1 8.6 Z" fill="#5B4FCF"/>
    </marker>
    <marker id="arrSkip" viewBox="0 0 10 10" refX="9" refY="5" markerWidth="6.5" markerHeight="6.5" orient="auto-start-reverse">
      <path d="M1 1.4 L9 5 L1 8.6 Z" fill="#64748B"/>
    </marker>
    <linearGradient id="headGrad" x1="0" y1="0" x2="1" y2="0">
      <stop offset="0" stop-color="#1A2332"/>
      <stop offset="1" stop-color="#3D4A5C"/>
    </linearGradient>
    <linearGradient id="panGrad" x1="0" y1="0" x2="0" y2="1">
      <stop offset="0" stop-color="#FFF7F0"/>
      <stop offset="1" stop-color="#FFE7D2"/>
    </linearGradient>
    <linearGradient id="msGrad" x1="0" y1="0" x2="0" y2="1">
      <stop offset="0" stop-color="#F1FBFA"/>
      <stop offset="1" stop-color="#D7F1EC"/>
    </linearGradient>
    <linearGradient id="fuseGrad" x1="0" y1="0" x2="0" y2="1">
      <stop offset="0" stop-color="#F7F5FF"/>
      <stop offset="1" stop-color="#E4DFFC"/>
    </linearGradient>
    <filter id="soft" x="-4%" y="-6%" width="108%" height="118%">
      <feDropShadow dx="0" dy="1.2" stdDeviation="1.8" flood-color="#1A2332" flood-opacity="0.10"/>
    </filter>
    <style type="text/css"><![CDATA[
      .title { font: 700 30px/1.1 "Segoe UI", "Helvetica Neue", Arial, sans-serif; fill: #122033; }
      .sub { font: 400 13.5px/1.35 "Segoe UI", "Helvetica Neue", Arial, sans-serif; fill: #5B6573; }
      .kicker { font: 700 10.5px/1 "Segoe UI", "Helvetica Neue", Arial, sans-serif; fill: #FFFFFF; letter-spacing: 0.08em; }
      .h { font: 700 13px/1.2 "Segoe UI", "Helvetica Neue", Arial, sans-serif; fill: #122033; }
      .h2 { font: 700 12px/1.2 "Segoe UI", "Helvetica Neue", Arial, sans-serif; fill: #122033; }
      .p { font: 400 11.5px/1.35 "Segoe UI", "Helvetica Neue", Arial, sans-serif; fill: #334155; }
      .s { font: 400 10.5px/1.3 "Segoe UI", "Helvetica Neue", Arial, sans-serif; fill: #5B6573; }
      .tiny { font: 600 9.5px/1.2 "Segoe UI", "Helvetica Neue", Arial, sans-serif; fill: #64748B; }
      .white { fill: #FFFFFF; }
      .panT { fill: #8B3A12; }
      .msT { fill: #0E4F49; }
      .fuseT { fill: #3D348F; }
      .mono { font-family: "Segoe UI", "Helvetica Neue", Arial, sans-serif; }
    ]]></style>
  </defs>

  <!-- page -->
  <rect width="1560" height="1020" fill="#F4F6F8"/>
  <rect x="16" y="16" width="1528" height="988" rx="18" fill="#FBFCFF" stroke="#E6EAF0"/>

  <!-- header -->
  <text class="title" x="40" y="52">RDM-PAN</text>
  <rect x="232" y="32" width="168" height="24" rx="12" fill="#122033"/>
  <text class="kicker" x="316" y="48" text-anchor="middle">MS + PAN  ·  ×4</text>
  <text class="sub" x="40" y="76">HR-grid dual U  ·  PAN is a first-class stream  ·  no matcher / reliability / change prior</text>

  <!-- legend -->
  <g transform="translate(980,28)">
    <rect x="0" y="6" width="12" height="12" rx="2" fill="#FFF4EB" stroke="#C45C26"/>
    <text class="s" x="18" y="16">PAN · RWKV</text>
    <rect x="118" y="6" width="12" height="12" rx="2" fill="#E7F6F3" stroke="#1B7A71"/>
    <text class="s" x="136" y="16">MS · Mamba</text>
    <rect x="236" y="6" width="12" height="12" rx="2" fill="#F1EEFF" stroke="#5B4FCF"/>
    <text class="s" x="254" y="16">fusion 1×1</text>
    <line x1="352" y1="12" x2="376" y2="12" stroke="#64748B" stroke-width="1.6" stroke-dasharray="4 3"/>
    <text class="s" x="382" y="16">skip / residual</text>
  </g>
  <text class="tiny" x="980" y="52">default D = 32, C = 8, scale = 4, shuffle_prob = 0</text>

  <!-- ===================== INPUTS ===================== -->
  <g filter="url(#soft)">
    <rect x="36" y="100" width="176" height="78" rx="12" fill="url(#panGrad)" stroke="#C45C26" stroke-width="1.6"/>
  </g>
  <text class="h panT" x="50" y="124">PAN  (ref)</text>
  <text class="p panT" x="50" y="144">1 × H × W</text>
  <text class="s" x="50" y="164">same-date, registered</text>

  <g filter="url(#soft)">
    <rect x="36" y="248" width="176" height="78" rx="12" fill="url(#msGrad)" stroke="#1B7A71" stroke-width="1.6"/>
  </g>
  <text class="h msT" x="50" y="272">LR MS  (lr)</text>
  <text class="p msT" x="50" y="292">C × h × w</text>
  <text class="s" x="50" y="312">H,W = h,w × scale</text>

  <!-- raise -->
  <rect x="228" y="115" width="86" height="48" rx="9" fill="#FFFFFF" stroke="#C45C26"/>
  <text class="tiny panT" x="271" y="134" text-anchor="middle">raise_pan</text>
  <text class="tiny" x="271" y="150" text-anchor="middle">3×3 + LReLU</text>
  <line x1="212" y1="139" x2="228" y2="139" stroke="#C45C26" stroke-width="1.7" marker-end="url(#arrPan)"/>

  <rect x="228" y="263" width="86" height="48" rx="9" fill="#FFFFFF" stroke="#1B7A71"/>
  <text class="tiny msT" x="271" y="282" text-anchor="middle">raise_ms</text>
  <text class="tiny" x="271" y="298" text-anchor="middle">3×3 + LReLU</text>
  <line x1="212" y1="287" x2="228" y2="287" stroke="#1B7A71" stroke-width="1.7" marker-end="url(#arrMs)"/>

  <!-- bicubic skip source -->
  <rect x="36" y="350" width="176" height="44" rx="9" fill="#FFFFFF" stroke="#94A3B8" stroke-dasharray="5 3.5"/>
  <text class="tiny" x="124" y="368" text-anchor="middle">skip = bicubic(LR)</text>
  <text class="tiny" x="124" y="384" text-anchor="middle">C × H × W   ·   anchored residual</text>
  <path d="M124 326 C124 338 124 338 124 350" fill="none" stroke="#1B7A71" stroke-width="1.4" marker-end="url(#arrMs)"/>

  <!-- raise to stages -->
  <line x1="314" y1="139" x2="332" y2="139" stroke="#C45C26" stroke-width="1.7" marker-end="url(#arrPan)"/>
  <line x1="314" y1="287" x2="332" y2="287" stroke="#1B7A71" stroke-width="1.7" marker-end="url(#arrMs)"/>

  <!-- ===================== STAGE CARDS ===================== -->
  <!-- helper: each card 150 x 236 at y=96 -->
  <g id="stages">
    <!-- S0 -->
    <g transform="translate(332,96)" filter="url(#soft)">
      <rect width="150" height="236" rx="14" fill="#FFFFFF" stroke="#D7DEE7"/>
      <text class="h2" x="14" y="22">Stage 0</text>
      <rect x="86" y="8" width="50" height="16" rx="8" fill="#EEF2F7"/>
      <text class="tiny" x="111" y="19" text-anchor="middle">encode</text>
      <text class="s" x="14" y="40">D @ H</text>
      <rect x="12" y="52" width="126" height="54" rx="9" fill="url(#panGrad)" stroke="#C45C26"/>
      <text class="h2 panT" x="75" y="74" text-anchor="middle">PAN</text>
      <text class="tiny panT" x="75" y="92" text-anchor="middle">SharedDirectionalRWKV</text>
      <rect x="44" y="112" width="62" height="20" rx="10" fill="url(#fuseGrad)" stroke="#5B4FCF"/>
      <text class="tiny fuseT" x="75" y="126" text-anchor="middle">PanMsFusion</text>
      <rect x="12" y="140" width="126" height="54" rx="9" fill="url(#msGrad)" stroke="#1B7A71"/>
      <text class="h2 msT" x="75" y="162" text-anchor="middle">MS</text>
      <text class="tiny msT" x="75" y="180" text-anchor="middle">FourDirectionMamba</text>
      <text class="tiny" x="75" y="214" text-anchor="middle">keep two streams</text>
      <text class="tiny" x="75" y="228" text-anchor="middle">cross 1×1, init = 0</text>
    </g>

    <!-- S1 -->
    <g transform="translate(522,96)" filter="url(#soft)">
      <rect width="150" height="236" rx="14" fill="#FFFFFF" stroke="#D7DEE7"/>
      <text class="h2" x="14" y="22">Stage 1</text>
      <rect x="86" y="8" width="50" height="16" rx="8" fill="#EEF2F7"/>
      <text class="tiny" x="111" y="19" text-anchor="middle">encode</text>
      <text class="s" x="14" y="40">2D @ H/2</text>
      <rect x="12" y="52" width="126" height="54" rx="9" fill="url(#panGrad)" stroke="#C45C26"/>
      <text class="h2 panT" x="75" y="74" text-anchor="middle">PAN</text>
      <text class="tiny panT" x="75" y="92" text-anchor="middle">RWKV self + cross</text>
      <rect x="44" y="112" width="62" height="20" rx="10" fill="url(#fuseGrad)" stroke="#5B4FCF"/>
      <text class="tiny fuseT" x="75" y="126" text-anchor="middle">PanMsFusion</text>
      <rect x="12" y="140" width="126" height="54" rx="9" fill="url(#msGrad)" stroke="#1B7A71"/>
      <text class="h2 msT" x="75" y="162" text-anchor="middle">MS</text>
      <text class="tiny msT" x="75" y="180" text-anchor="middle">Mamba self + cross</text>
      <text class="tiny" x="75" y="214" text-anchor="middle">keep two streams</text>
      <text class="tiny" x="75" y="228" text-anchor="middle">zero-init cross</text>
    </g>

    <!-- S2 bottleneck -->
    <g transform="translate(712,96)" filter="url(#soft)">
      <rect width="150" height="236" rx="14" fill="#FFFFFF" stroke="#5B4FCF" stroke-width="1.5"/>
      <text class="h2" x="14" y="22">Stage 2</text>
      <rect x="78" y="8" width="58" height="16" rx="8" fill="#5B4FCF"/>
      <text class="tiny white" x="107" y="19" text-anchor="middle">bottleneck</text>
      <text class="s" x="14" y="40">4D @ H/4</text>
      <rect x="12" y="52" width="126" height="54" rx="9" fill="url(#panGrad)" stroke="#C45C26"/>
      <text class="h2 panT" x="75" y="74" text-anchor="middle">PAN</text>
      <text class="tiny panT" x="75" y="92" text-anchor="middle">deepest spatial scan</text>
      <rect x="44" y="112" width="62" height="20" rx="10" fill="url(#fuseGrad)" stroke="#5B4FCF"/>
      <text class="tiny fuseT" x="75" y="126" text-anchor="middle">PanMsFusion</text>
      <rect x="12" y="140" width="126" height="54" rx="9" fill="url(#msGrad)" stroke="#1B7A71"/>
      <text class="h2 msT" x="75" y="162" text-anchor="middle">MS</text>
      <text class="tiny msT" x="75" y="180" text-anchor="middle">deepest spectral scan</text>
      <text class="tiny" x="75" y="214" text-anchor="middle">still two streams</text>
      <text class="tiny" x="75" y="228" text-anchor="middle">no early merge</text>
    </g>

    <!-- S3 -->
    <g transform="translate(902,96)" filter="url(#soft)">
      <rect width="150" height="236" rx="14" fill="#FFFFFF" stroke="#D7DEE7"/>
      <text class="h2" x="14" y="22">Stage 3</text>
      <rect x="86" y="8" width="50" height="16" rx="8" fill="#EEF2F7"/>
      <text class="tiny" x="111" y="19" text-anchor="middle">decode</text>
      <text class="s" x="14" y="40">2D @ H/2</text>
      <rect x="12" y="52" width="126" height="54" rx="9" fill="url(#panGrad)" stroke="#C45C26"/>
      <text class="h2 panT" x="75" y="74" text-anchor="middle">PAN</text>
      <text class="tiny panT" x="75" y="92" text-anchor="middle">+ mix(U-skip 1)</text>
      <rect x="44" y="112" width="62" height="20" rx="10" fill="url(#fuseGrad)" stroke="#5B4FCF"/>
      <text class="tiny fuseT" x="75" y="126" text-anchor="middle">PanMsFusion</text>
      <rect x="12" y="140" width="126" height="54" rx="9" fill="url(#msGrad)" stroke="#1B7A71"/>
      <text class="h2 msT" x="75" y="162" text-anchor="middle">MS</text>
      <text class="tiny msT" x="75" y="180" text-anchor="middle">+ mix(U-skip 1)</text>
      <text class="tiny" x="75" y="214" text-anchor="middle">keep two streams</text>
      <text class="tiny" x="75" y="228" text-anchor="middle">DW 3×3 mix after ↑</text>
    </g>

    <!-- S4 final -->
    <g transform="translate(1092,96)" filter="url(#soft)">
      <rect width="150" height="236" rx="14" fill="#FFFFFF" stroke="#C45C26" stroke-width="1.5"/>
      <text class="h2" x="14" y="22">Stage 4</text>
      <rect x="86" y="8" width="50" height="16" rx="8" fill="#C45C26"/>
      <text class="tiny white" x="111" y="19" text-anchor="middle">final</text>
      <text class="s" x="14" y="40">D @ H</text>
      <rect x="12" y="52" width="126" height="54" rx="9" fill="url(#panGrad)" stroke="#C45C26"/>
      <text class="h2 panT" x="75" y="74" text-anchor="middle">PAN</text>
      <text class="tiny panT" x="75" y="92" text-anchor="middle">+ mix(U-skip 0)</text>
      <rect x="44" y="112" width="62" height="20" rx="10" fill="url(#fuseGrad)" stroke="#5B4FCF"/>
      <text class="tiny fuseT" x="75" y="126" text-anchor="middle">PanMsFusion</text>
      <rect x="12" y="140" width="126" height="54" rx="9" fill="url(#msGrad)" stroke="#1B7A71"/>
      <text class="h2 msT" x="75" y="162" text-anchor="middle">MS</text>
      <text class="tiny msT" x="75" y="180" text-anchor="middle">+ mix(U-skip 0)</text>
      <text class="tiny fuseT" x="75" y="214" text-anchor="middle">merge → one stream</text>
      <text class="tiny" x="75" y="228" text-anchor="middle">return fused only</text>
    </g>
  </g>

  <!-- down / up connectors -->
  <g fill="none">
    <path d="M482 139 H508" stroke="#C45C26" stroke-width="1.8" marker-end="url(#arrPan)"/>
    <path d="M482 287 H508" stroke="#1B7A71" stroke-width="1.8" marker-end="url(#arrMs)"/>
    <path d="M672 139 H698" stroke="#C45C26" stroke-width="1.8" marker-end="url(#arrPan)"/>
    <path d="M672 287 H698" stroke="#1B7A71" stroke-width="1.8" marker-end="url(#arrMs)"/>
    <path d="M862 139 H888" stroke="#C45C26" stroke-width="1.8" marker-end="url(#arrPan)"/>
    <path d="M862 287 H888" stroke="#1B7A71" stroke-width="1.8" marker-end="url(#arrMs)"/>
    <path d="M1052 139 H1078" stroke="#C45C26" stroke-width="1.8" marker-end="url(#arrPan)"/>
    <path d="M1052 287 H1078" stroke="#1B7A71" stroke-width="1.8" marker-end="url(#arrMs)"/>
  </g>
  <text class="tiny" x="495" y="358" text-anchor="middle">↓ Conv 2×2 s2</text>
  <text class="tiny" x="685" y="358" text-anchor="middle">↓ Conv 2×2 s2</text>
  <text class="tiny" x="875" y="358" text-anchor="middle">↑ ConvT 2×2</text>
  <text class="tiny" x="1065" y="358" text-anchor="middle">↑ ConvT 2×2</text>
  <text class="tiny" x="875" y="372" text-anchor="middle">+ skip1 mix</text>
  <text class="tiny" x="1065" y="372" text-anchor="middle">+ skip0 mix</text>

  <!-- U-skips -->
  <path d="M597 96 C597 72, 797 72, 887 112" fill="none" stroke="#64748B" stroke-width="1.5" stroke-dasharray="5 3.5" marker-end="url(#arrSkip)"/>
  <text class="tiny" x="742" y="68" text-anchor="middle">U-skip 1  (after Stage 1 → into Stage 3)</text>
  <path d="M407 96 C407 54, 1008 54, 1078 112" fill="none" stroke="#64748B" stroke-width="1.5" stroke-dasharray="5 3.5" marker-end="url(#arrSkip)"/>
  <text class="tiny" x="760" y="48" text-anchor="middle">U-skip 0  (after Stage 0 → into Stage 4)</text>

  <!-- residual skip under the U -->
  <path d="M212 372 H1268" fill="none" stroke="#64748B" stroke-width="1.5" stroke-dasharray="6 4"/>
  <text class="tiny" x="740" y="390" text-anchor="middle">global residual on bicubic MS  ·  network only learns the pansharpening residual</text>

  <!-- ===================== OUTPUT COLUMN ===================== -->
  <line x1="1242" y1="214" x2="1264" y2="214" stroke="#5B4FCF" stroke-width="1.8" marker-end="url(#arrFuse)"/>
  <g filter="url(#soft)">
    <rect x="1264" y="118" width="256" height="58" rx="11" fill="url(#fuseGrad)" stroke="#5B4FCF"/>
  </g>
  <text class="h2 fuseT" x="1392" y="140" text-anchor="middle">fused   D × H × W</text>
  <text class="tiny fuseT" x="1392" y="158" text-anchor="middle">single stream after Stage 4</text>
  <text class="tiny" x="1392" y="172" text-anchor="middle">to_hrms: 3×3 → LReLU → 3×3</text>

  <path d="M1392 176 V198" fill="none" stroke="#5B4FCF" stroke-width="1.6" marker-end="url(#arrFuse)"/>

  <g filter="url(#soft)">
    <rect x="1264" y="198" width="256" height="52" rx="11" fill="#FFFFFF" stroke="#5B4FCF"/>
  </g>
  <text class="h2 fuseT" x="1392" y="218" text-anchor="middle">to_hrms(fused)</text>
  <text class="tiny" x="1392" y="236" text-anchor="middle">last conv ~U(±1e-4), bias = 0</text>

  <!-- SpeGate -->
  <path d="M124 326 C124 430, 1180 430, 1264 318" fill="none" stroke="#1B7A71" stroke-width="1.5" stroke-dasharray="4 3" marker-end="url(#arrMs)"/>
  <text class="tiny msT" x="980" y="424">SpeGate from native LR MS, not from bicubic skip</text>

  <g filter="url(#soft)">
    <rect x="1264" y="268" width="256" height="64" rx="11" fill="url(#msGrad)" stroke="#1B7A71"/>
  </g>
  <text class="h2 msT" x="1392" y="290" text-anchor="middle">SpeGate(LR)</text>
  <text class="tiny msT" x="1392" y="308" text-anchor="middle">GAP → Conv → GELU → Conv → σ</text>
  <text class="tiny" x="1392" y="322" text-anchor="middle">channel gate  C × 1 × 1</text>

  <!-- multiply then add -->
  <path d="M1392 250 V268" fill="none" stroke="#5B4FCF" stroke-width="1.4"/>
  <circle cx="1392" cy="348" r="14" fill="#FFFFFF" stroke="#122033" stroke-width="1.6"/>
  <text class="h" x="1392" y="353" text-anchor="middle">⊙</text>
  <path d="M1392 332 V334" fill="none" stroke="#1B7A71" stroke-width="1.4"/>
  <path d="M1392 250 V334" fill="none" stroke="#5B4FCF" stroke-width="1.4" opacity="0"/>
  <path d="M1392 250 V268" fill="none" stroke="#5B4FCF" stroke-width="1.4"/>
  <!-- from to_hrms down to multiply: already 176-198, then 250 to 334 -->
  <path d="M1392 250 V334" fill="none" stroke="#5B4FCF" stroke-width="1.5" marker-end="url(#arr)"/>
  <path d="M1392 332 V334" fill="none"/>

  <path d="M1392 362 V378" fill="none" stroke="#122033" stroke-width="1.5" marker-end="url(#arr)"/>
  <circle cx="1392" cy="392" r="14" fill="#FFFFFF" stroke="#122033" stroke-width="1.6"/>
  <text class="h" x="1392" y="397" text-anchor="middle">+</text>
  <path d="M1268 372 H1378" fill="none" stroke="#64748B" stroke-width="1.5" stroke-dasharray="6 4" marker-end="url(#arrSkip)"/>

  <g filter="url(#soft)">
    <rect x="1264" y="418" width="256" height="66" rx="11" fill="#122033"/>
  </g>
  <text class="kicker" x="1392" y="440" text-anchor="middle">HR MS  (output)</text>
  <text class="white" x="1392" y="460" text-anchor="middle" style="font: 600 13px 'Segoe UI', Arial, sans-serif;">C × H × W   ·   clamp [0, 1]</text>
  <text class="tiny" x="1392" y="476" text-anchor="middle" fill="#C9D3DE">HR = skip + to_hrms(fused) ⊙ SpeGate(LR)</text>
  <path d="M1392 406 V418" fill="none" stroke="#122033" stroke-width="1.5" marker-end="url(#arr)"/>

  <!-- ===================== BOTTOM: PanMsFusion ===================== -->
  <g filter="url(#soft)">
    <rect x="36" y="508" width="990" height="472" rx="16" fill="#FFFFFF" stroke="#E6EAF0"/>
  </g>
  <text class="h" x="56" y="536">PanMsFusion  —  one dual-stream unit</text>
  <text class="s" x="56" y="556">Self-scan first, then zero-init 1×1 cross, then mix.  Not FusionMamba CrossMambaBlock.</text>

  <!-- phase labels -->
  <rect x="56" y="572" width="88" height="20" rx="10" fill="#EEF2F7"/>
  <text class="tiny" x="100" y="586" text-anchor="middle">1  self-scan</text>
  <rect x="390" y="572" width="96" height="20" rx="10" fill="#F1EEFF"/>
  <text class="tiny fuseT" x="438" y="586" text-anchor="middle">2  cross-scan</text>
  <rect x="780" y="572" width="72" height="20" rx="10" fill="#122033"/>
  <text class="tiny white" x="816" y="586" text-anchor="middle">3  mix</text>

  <!-- PAN self -->
  <text class="tiny panT" x="56" y="618">PAN in</text>
  <rect x="56" y="626" width="70" height="36" rx="8" fill="url(#panGrad)" stroke="#C45C26"/>
  <text class="tiny panT" x="91" y="648" text-anchor="middle">RMSNorm</text>
  <line x1="126" y1="644" x2="142" y2="644" stroke="#C45C26" stroke-width="1.5" marker-end="url(#arrPan)"/>
  <rect x="142" y="626" width="118" height="36" rx="8" fill="url(#panGrad)" stroke="#C45C26"/>
  <text class="tiny panT" x="201" y="641" text-anchor="middle">RWKV  4-dir</text>
  <text class="tiny panT" x="201" y="655" text-anchor="middle">shared WKV</text>
  <line x1="260" y1="644" x2="276" y2="644" stroke="#C45C26" stroke-width="1.5" marker-end="url(#arrPan)"/>
  <circle cx="292" cy="644" r="12" fill="#FFFFFF" stroke="#C45C26"/>
  <text class="tiny panT" x="292" y="648" text-anchor="middle">+</text>
  <path d="M91 626 V612 H292 V632" fill="none" stroke="#C45C26" stroke-width="1.2" stroke-dasharray="3 2"/>
  <text class="tiny panT" x="318" y="648">pan′</text>

  <!-- MS self -->
  <text class="tiny msT" x="56" y="708">MS in</text>
  <rect x="56" y="716" width="70" height="36" rx="8" fill="url(#msGrad)" stroke="#1B7A71"/>
  <text class="tiny msT" x="91" y="738" text-anchor="middle">RMSNorm</text>
  <line x1="126" y1="734" x2="142" y2="734" stroke="#1B7A71" stroke-width="1.5" marker-end="url(#arrMs)"/>
  <rect x="142" y="716" width="118" height="36" rx="8" fill="url(#msGrad)" stroke="#1B7A71"/>
  <text class="tiny msT" x="201" y="731" text-anchor="middle">Mamba  4-dir</text>
  <text class="tiny msT" x="201" y="745" text-anchor="middle">selective SSM</text>
  <line x1="260" y1="734" x2="276" y2="734" stroke="#1B7A71" stroke-width="1.5" marker-end="url(#arrMs)"/>
  <circle cx="292" cy="734" r="12" fill="#FFFFFF" stroke="#1B7A71"/>
  <text class="tiny msT" x="292" y="738" text-anchor="middle">+</text>
  <path d="M91 752 V766 H292 V746" fill="none" stroke="#1B7A71" stroke-width="1.2" stroke-dasharray="3 2"/>
  <text class="tiny msT" x="318" y="738">ms′</text>

  <!-- cross from ms to pan -->
  <path d="M340 644 H368" fill="none" stroke="#C45C26" stroke-width="1.5" marker-end="url(#arrPan)"/>
  <rect x="368" y="626" width="86" height="36" rx="8" fill="#FFFFFF" stroke="#5B4FCF"/>
  <text class="tiny fuseT" x="411" y="641" text-anchor="middle">+ W_P←M</text>
  <text class="tiny" x="411" y="655" text-anchor="middle">1×1, zeros</text>
  <path d="M330 734 C348 734, 348 644, 368 644" fill="none" stroke="#5B4FCF" stroke-width="1.3" stroke-dasharray="3 2"/>
  <line x1="454" y1="644" x2="470" y2="644" stroke="#C45C26" stroke-width="1.5" marker-end="url(#arrPan)"/>
  <rect x="470" y="626" width="70" height="36" rx="8" fill="url(#panGrad)" stroke="#C45C26"/>
  <text class="tiny panT" x="505" y="648" text-anchor="middle">Norm+RWKV</text>
  <line x1="540" y1="644" x2="556" y2="644" stroke="#C45C26" stroke-width="1.5" marker-end="url(#arrPan)"/>
  <circle cx="572" cy="644" r="12" fill="#FFFFFF" stroke="#C45C26"/>
  <text class="tiny panT" x="572" y="648" text-anchor="middle">+</text>
  <path d="M340 632 C340 604, 572 604, 572 632" fill="none" stroke="#C45C26" stroke-width="1.2" stroke-dasharray="3 2"/>
  <text class="tiny panT" x="598" y="648">spa</text>

  <!-- cross from pan to ms -->
  <path d="M340 734 H368" fill="none" stroke="#1B7A71" stroke-width="1.5" marker-end="url(#arrMs)"/>
  <rect x="368" y="716" width="86" height="36" rx="8" fill="#FFFFFF" stroke="#5B4FCF"/>
  <text class="tiny fuseT" x="411" y="731" text-anchor="middle">+ W_M←P</text>
  <text class="tiny" x="411" y="745" text-anchor="middle">1×1, zeros</text>
  <path d="M330 644 C348 644, 348 734, 368 734" fill="none" stroke="#5B4FCF" stroke-width="1.3" stroke-dasharray="3 2"/>
  <line x1="454" y1="734" x2="470" y2="734" stroke="#1B7A71" stroke-width="1.5" marker-end="url(#arrMs)"/>
  <rect x="470" y="716" width="70" height="36" rx="8" fill="url(#msGrad)" stroke="#1B7A71"/>
  <text class="tiny msT" x="505" y="738" text-anchor="middle">Norm+Mamba</text>
  <line x1="540" y1="734" x2="556" y2="734" stroke="#1B7A71" stroke-width="1.5" marker-end="url(#arrMs)"/>
  <circle cx="572" cy="734" r="12" fill="#FFFFFF" stroke="#1B7A71"/>
  <text class="tiny msT" x="572" y="738" text-anchor="middle">+</text>
  <path d="M340 746 C340 774, 572 774, 572 746" fill="none" stroke="#1B7A71" stroke-width="1.2" stroke-dasharray="3 2"/>
  <text class="tiny msT" x="598" y="738">spe</text>

  <!-- mix -->
  <path d="M620 644 C700 644, 700 680, 742 688" fill="none" stroke="#5B4FCF" stroke-width="1.5" marker-end="url(#arrFuse)"/>
  <path d="M620 734 C700 734, 700 708, 742 700" fill="none" stroke="#5B4FCF" stroke-width="1.5" marker-end="url(#arrFuse)"/>
  <rect x="742" y="672" width="116" height="44" rx="9" fill="url(#fuseGrad)" stroke="#5B4FCF"/>
  <text class="tiny fuseT" x="800" y="690" text-anchor="middle">(spa + spe) / 2</text>
  <text class="tiny fuseT" x="800" y="706" text-anchor="middle">Conv 1×1  → fused</text>

  <!-- outputs -->
  <rect x="872" y="626" width="134" height="44" rx="9" fill="#122033"/>
  <text class="tiny white" x="939" y="644" text-anchor="middle">final = True</text>
  <text class="tiny white" x="939" y="660" text-anchor="middle">return fused</text>
  <rect x="872" y="716" width="134" height="52" rx="9" fill="#FFFFFF" stroke="#94A3B8"/>
  <text class="tiny" x="939" y="734" text-anchor="middle">otherwise</text>
  <text class="tiny panT" x="939" y="748" text-anchor="middle">(spa+fused)/2</text>
  <text class="tiny msT" x="939" y="762" text-anchor="middle">(spe+fused)/2</text>
  <path d="M858 694 H872" fill="none" stroke="#5B4FCF" stroke-width="1.4" marker-end="url(#arrFuse)"/>
  <path d="M858 694 C868 694, 868 742, 872 742" fill="none" stroke="#64748B" stroke-width="1.3" marker-end="url(#arrSkip)"/>

  <!-- equations strip -->
  <rect x="56" y="800" width="950" height="160" rx="12" fill="#F7F8FB" stroke="#E6EAF0"/>
  <text class="h2" x="76" y="826">Forward, as implemented</text>
  <text class="p" x="76" y="850">pan = pan + RWKV(Norm(pan))     ·     ms = ms + Mamba(Norm(ms))</text>
  <text class="p" x="76" y="872">spa = pan + RWKV(Norm(pan + W_P←M(ms)))     ·     spe = ms + Mamba(Norm(ms + W_M←P(pan)))</text>
  <text class="p" x="76" y="894">fused = Conv1×1((spa + spe) / 2)</text>
  <text class="p" x="76" y="916">non-final:  ((spa + fused)/2, (spe + fused)/2)      final Stage 4:  fused only</text>
  <text class="s" x="76" y="942">W_P←M and W_M←P start at 0, so step 0 is two independent self-scans.  PanMsFusion never passes a reliability map.</text>

  <!-- ===================== NOTES ===================== -->
  <g filter="url(#soft)">
    <rect x="1042" y="508" width="478" height="472" rx="16" fill="#FFFFFF" stroke="#E6EAF0"/>
  </g>
  <text class="h" x="1062" y="536">What this figure is saying</text>

  <rect x="1062" y="552" width="438" height="86" rx="10" fill="#FFF4EB" stroke="#F0D2B8"/>
  <text class="h2 panT" x="1078" y="574">PAN → RWKV</text>
  <text class="s" x="1078" y="594">Single-channel spatial detail on the HR grid.</text>
  <text class="s" x="1078" y="610">Fixed-decay WKV + 4-dir scan + shared parameters.</text>
  <text class="s" x="1078" y="626">Constant memory; edges stay ordered (shuffle_prob=0).</text>

  <rect x="1062" y="648" width="438" height="86" rx="10" fill="#E7F6F3" stroke="#B9DED7"/>
  <text class="h2 msT" x="1078" y="670">MS → Mamba</text>
  <text class="s" x="1078" y="690">Multi-band spectral stream, bicubic-upsampled to PAN.</text>
  <text class="s" x="1078" y="706">Selective SSM (input-dependent Δ / B / C).</text>
  <text class="s" x="1078" y="722">Better inductive bias for cross-band mixing.</text>

  <rect x="1062" y="744" width="438" height="86" rx="10" fill="#F1EEFF" stroke="#D5CEF5"/>
  <text class="h2 fuseT" x="1078" y="766">Anchored output</text>
  <text class="s" x="1078" y="786">HR = bicubic(LR) + to_hrms(fused) ⊙ SpeGate(LR)</text>
  <text class="s" x="1078" y="802">to_hrms last layer tiny; init ≈ bicubic MS.</text>
  <text class="s" x="1078" y="818">SpeGate is FusionMamba-style channel attention.</text>

  <rect x="1062" y="840" width="438" height="118" rx="10" fill="#F7F8FB" stroke="#E6EAF0"/>
  <text class="h2" x="1078" y="862">Not a gated RefSR leftover</text>
  <text class="s" x="1078" y="882">No matcher, no ReliabilityField, no change prior.</text>
  <text class="s" x="1078" y="898">No CrossMambaBlock — cross is 1×1 then re-scan.</text>
  <text class="s" x="1078" y="914">Down: Conv 2×2 s2.  Up: ConvTranspose 2×2 + DW mix.</text>
  <text class="s" x="1078" y="930">Widths D / 2D / 4D, only Stage 4 collapses to one stream.</text>
  <text class="s" x="1078" y="946">DualStreamFusion can take reliability; RDM-PAN does not.</text>
</svg>
